<svg xmlns="http://www.w3.org/2000/svg" xmlns:xlink="http://www.w3.org/1999/xlink" width="46" height="46" viewBox="0 0 46 46"><defs><style>.a{fill:#0e6e98;}.b{fill:#fff;stroke:#fff;stroke-width:0.3px;}.c{filter:url(#a);}</style><filter id="a" x="0" y="0" width="46" height="46" filterUnits="userSpaceOnUse"><feOffset dy="3" input="SourceAlpha"/><feGaussianBlur stdDeviation="3" result="b"/><feFlood flood-opacity="0.161"/><feComposite operator="in" in2="b"/><feComposite in="SourceGraphic"/></filter></defs><g transform="translate(-3204 -1257)"><g transform="translate(2219 499)"><g transform="translate(994 764)"><g class="c" transform="matrix(1, 0, 0, 1, -9, -6)"><circle class="a" cx="14" cy="14" r="14" transform="translate(9 6)"/></g></g></g><g transform="translate(3218 1265.913)"><g transform="translate(1 4.087)"><path class="b" d="M41.335,23.863H39.67a.243.243,0,0,0-.243.243v1.775a.243.243,0,0,0,.243.243h1.664a.243.243,0,0,0,.243-.243V24.106A.243.243,0,0,0,41.335,23.863Zm-.243,1.775H39.913v-1.29h1.179Z" transform="translate(-30.101 -19.064)"/><path class="b" d="M52.477,36.663H50.813a.243.243,0,0,0-.243.243v1.775a.243.243,0,0,0,.243.243h1.664a.243.243,0,0,0,.243-.243V36.906A.243.243,0,0,0,52.477,36.663Zm-.243,1.775H51.056v-1.29h1.179Z" transform="translate(-38.54 -28.757)"/><path class="b" d="M41.335,49.463H39.67a.243.243,0,0,0-.243.243v1.775a.243.243,0,0,0,.243.243h1.664a.243.243,0,0,0,.243-.243V49.706A.243.243,0,0,0,41.335,49.463Zm-.243,1.775H39.913v-1.29h1.179Z" transform="translate(-30.101 -38.45)"/><path class="b" d="M52.477,23.863H50.813a.243.243,0,0,0-.243.243v1.775a.243.243,0,0,0,.243.243h1.664a.243.243,0,0,0,.243-.243V24.106A.243.243,0,0,0,52.477,23.863Zm-.243,1.775H51.056v-1.29h1.179Z" transform="translate(-38.54 -19.064)"/><path class="b" d="M41.335,36.663H39.67a.243.243,0,0,0-.243.243v1.775a.243.243,0,0,0,.243.243h1.664a.243.243,0,0,0,.243-.243V36.906A.243.243,0,0,0,41.335,36.663Zm-.243,1.775H39.913v-1.29h1.179Z" transform="translate(-30.101 -28.757)"/><path class="b" d="M52.477,49.463H50.813a.243.243,0,0,0-.243.243v1.775a.243.243,0,0,0,.243.243h1.664a.243.243,0,0,0,.243-.243V49.706A.243.243,0,0,0,52.477,49.463Zm-.243,1.775H51.056v-1.29h1.179Z" transform="translate(-38.54 -38.45)"/><path class="b" d="M21.7,10.92h1.775a.243.243,0,0,0,.243-.243V8.9a.243.243,0,0,0-.243-.243H21.7a.243.243,0,0,0-.243.243v1.775A.243.243,0,0,0,21.7,10.92Zm.243-1.775h1.29v1.29h-1.29Z" transform="translate(-16.491 -7.549)"/><path class="b" d="M21.7,34.691h1.775a.243.243,0,0,0,.243-.243V32.673a.243.243,0,0,0-.243-.243H21.7a.243.243,0,0,0-.243.243v1.775A.243.243,0,0,0,21.7,34.691Zm.243-1.775h1.29v1.29h-1.29Z" transform="translate(-16.491 -25.552)"/><path class="b" d="M9.813,22.806h1.775a.243.243,0,0,0,.243-.243V20.788a.243.243,0,0,0-.243-.243H9.813a.243.243,0,0,0-.243.243v1.775A.243.243,0,0,0,9.813,22.806Zm.243-1.775h1.29v1.29h-1.29V21.03Z" transform="translate(-7.49 -16.551)"/><path class="b" d="M9.813,10.92h1.775a.243.243,0,0,0,.243-.243V8.9a.243.243,0,0,0-.243-.243H9.813A.243.243,0,0,0,9.57,8.9v1.775A.243.243,0,0,0,9.813,10.92Zm.243-1.775h1.29v1.29h-1.29V9.145Z" transform="translate(-7.49 -7.549)"/><path class="b" d="M21.7,22.806h1.775a.243.243,0,0,0,.243-.243V20.788a.243.243,0,0,0-.243-.243H21.7a.243.243,0,0,0-.243.243v1.775A.243.243,0,0,0,21.7,22.806Zm.243-1.775h1.29v1.29h-1.29Z" transform="translate(-16.491 -16.551)"/><path class="b" d="M9.813,34.691h1.775a.243.243,0,0,0,.243-.243V32.673a.243.243,0,0,0-.243-.243H9.813a.243.243,0,0,0-.243.243v1.775A.243.243,0,0,0,9.813,34.691Zm.243-1.775h1.29v1.29h-1.29v-1.29Z" transform="translate(-7.49 -25.552)"/><path class="b" d="M1.243,18.607H16.776a.243.243,0,0,0,0-.485h-.423V8.369a.729.729,0,0,0-.727-.73H9.882a.716.716,0,0,0-.242.045V4.814a.729.729,0,0,0-.73-.727H2.393a.728.728,0,0,0-.727.727V18.121H1.243a.243.243,0,1,0,0,.485ZM9.64,8.369a.243.243,0,0,1,.242-.244h5.743a.243.243,0,0,1,.242.244v9.752H9.64ZM5.41,18.121H4.12V14.474H5.41Zm1.775,0H5.9V14.474h1.29ZM2.152,4.814a.242.242,0,0,1,.242-.242H8.911a.243.243,0,0,1,.244.242V18.121H7.671V14.474h.312a.243.243,0,1,0,0-.485H3.323a.243.243,0,1,0,0,.485h.312v3.647H2.152Z" transform="translate(-1 -4.087)"/><path class="b" d="M30.785,54.748a.243.243,0,0,0-.243.243V55.7a.243.243,0,1,0,.485,0V54.99A.243.243,0,0,0,30.785,54.748Z" transform="translate(-23.372 -42.452)"/><path class="b" d="M30.542,48.676a.243.243,0,1,0,.485,0v-.761a.243.243,0,0,0-.485,0Z" transform="translate(-23.372 -37.094)"/><path class="b" d="M8.427,53.58a.243.243,0,0,0-.243.243V54.7a.243.243,0,1,0,.485,0v-.877A.243.243,0,0,0,8.427,53.58Z" transform="translate(-6.441 -41.568)"/></g></g></g></svg>