<svg xmlns="http://www.w3.org/2000/svg" xmlns:xlink="http://www.w3.org/1999/xlink" width="46" height="46" viewBox="0 0 46 46"><defs><style>.a{fill:#1286ef;}.b{fill:#fff;stroke:#fff;stroke-width:0.5px;}.c{filter:url(#a);}</style><filter id="a" x="0" y="0" width="46" height="46" filterUnits="userSpaceOnUse"><feOffset dy="3" input="SourceAlpha"/><feGaussianBlur stdDeviation="3" result="b"/><feFlood flood-opacity="0.161"/><feComposite operator="in" in2="b"/><feComposite in="SourceGraphic"/></filter></defs><g transform="translate(-3276 -1257)"><g transform="translate(36)"><g transform="translate(2255 499)"><g transform="translate(994 764)"><g class="c" transform="matrix(1, 0, 0, 1, -9, -6)"><circle class="a" cx="14" cy="14" r="14" transform="translate(9 6)"/></g></g></g></g><g transform="translate(3168.785 1122.795)"><g transform="translate(122.215 148.205)"><path class="b" d="M38.441,81H33.214a4.282,4.282,0,0,0-2.515.808l-.3.213-.3-.212A4.283,4.283,0,0,0,27.583,81H22.356a.359.359,0,0,0-.359.359V92.105a.359.359,0,0,0,.359.359h5.227a3.572,3.572,0,0,1,2.1.676l.508.36a.359.359,0,0,0,.415,0l.51-.362a3.569,3.569,0,0,1,2.1-.674h5.227a.359.359,0,0,0,.359-.359V81.359A.359.359,0,0,0,38.441,81ZM27.583,91.746H22.715V81.718h4.868a3.571,3.571,0,0,1,2.1.676l.251.178v9.871A4.283,4.283,0,0,0,27.583,91.746Zm10.5,0H33.214a4.282,4.282,0,0,0-2.515.808l-.048.034V82.722l.465-.33a3.57,3.57,0,0,1,2.1-.674h4.868Z" transform="translate(-21.997 -81)"/><path class="b" d="M72.356,171.718h1.278a.359.359,0,1,0,0-.718H72.356a.359.359,0,1,0,0,.718Z" transform="translate(-70.202 -167.769)"/><path class="b" d="M76.506,221h-4.15a.359.359,0,1,0,0,.718h4.15a.359.359,0,0,0,0-.718Z" transform="translate(-70.202 -215.974)"/><path class="b" d="M76.506,281h-4.15a.359.359,0,0,0,0,.718h4.15a.359.359,0,0,0,0-.718Z" transform="translate(-70.202 -273.819)"/></g></g></g></svg>