<svg xmlns="http://www.w3.org/2000/svg" xmlns:xlink="http://www.w3.org/1999/xlink" width="46" height="46" viewBox="0 0 46 46"><defs><style>.a{fill:#63bb6b;}.b{fill:#fff;}.c{filter:url(#a);}</style><filter id="a" x="0" y="0" width="46" height="46" filterUnits="userSpaceOnUse"><feOffset dy="3" input="SourceAlpha"/><feGaussianBlur stdDeviation="3" result="b"/><feFlood flood-opacity="0.161"/><feComposite operator="in" in2="b"/><feComposite in="SourceGraphic"/></filter></defs><g transform="translate(-679 -418)"><g class="c" transform="matrix(1, 0, 0, 1, 679, 418)"><circle class="a" cx="14" cy="14" r="14" transform="translate(9 6)"/></g><g transform="translate(693.89 429.198)"><path class="b" d="M18.527,15.436H17.345a.274.274,0,0,0-.274.274v1.066H14.432V13.755h3.51a.274.274,0,0,0,.17-.489l-1.342-1.5a.274.274,0,0,0-.2-.091H13.883v-.8h2.139a.274.274,0,0,0,.17-.489l-1.342-1.5a.274.274,0,0,0-.2-.091H13.335v-.8h.494A.274.274,0,0,0,14,7.505l-1.342-1.5a.274.274,0,0,0-.2-.091h-.488V4.979h.22a.274.274,0,0,0,.17-.489l-1.342-1.5a.283.283,0,0,0-.409,0L9.232,4.521a.274.274,0,0,0,.2.457h.231v.937H9.162a.274.274,0,0,0-.2.091L7.587,7.538a.274.274,0,0,0,.2.457H8.3v.8H7.243a.274.274,0,0,0-.2.091l-1.371,1.53a.274.274,0,0,0,.2.457H7.748v.8h-2.7a.274.274,0,0,0-.2.091L3.474,13.3a.274.274,0,0,0,.2.457H7.2v3.022H4.544V15.711a.274.274,0,0,0-.274-.274H3.087a.274.274,0,0,0-.274.274v2.849a.274.274,0,0,0,.274.274h15.44a.274.274,0,0,0,.274-.274V15.711A.275.275,0,0,0,18.527,15.436ZM10.807,3.585l.757.845H10.05Zm.608,1.393v.8h-1.2v-.8Zm6.2,11.006h.634v.792h-.634ZM9.284,6.464H12.33l.88.982h-4.8Zm-.439,1.53h3.941v.8H8.845Zm-1.48,1.35h7.158l.879.982H6.486Zm.932,1.53h5.038v.8H8.3Zm-3.125,1.35H16.443l.879.982H4.292Zm2.577,1.53h6.135v3.022H11.8V15.363a1.122,1.122,0,0,0-2.243,0v1.414H7.748V13.755ZM10.1,16.632V15.363a.573.573,0,1,1,1.147,0v1.269ZM4,15.985v.792H3.361v-.792Zm14.258,2.3H3.361v-.96H18.253v.96Z" transform="translate(-2.813 -2.904)"/></g></g></svg>